HIERARCHY
ROOT Hips
{
	OFFSET	0.00	0.00	0.00
	CHANNELS 6 Xposition Yposition Zposition Zrotation Xrotation Yrotation
	JOINT LeftUpLeg
	{
		OFFSET	 0.126116	-0.014019	-0.065224
		CHANNELS 3 Zrotation Xrotation Yrotation
		JOINT LeftLeg
		{
			OFFSET	 0.000000	 0.000000	 0.569914
			CHANNELS 3 Zrotation Xrotation Yrotation
			JOINT LeftFoot
			{
				OFFSET	 0.000000	 0.000000	 0.544423
				CHANNELS 3 Zrotation Xrotation Yrotation
				JOINT LeftToeBase
				{
					OFFSET	 0.000000	 0.000000	 0.207117
					CHANNELS 3 Zrotation Xrotation Yrotation
					End Site
					{
						OFFSET	 0.000000	 0.000000	 0.207117
					}
				}
			}
		}
	}
	JOINT RightUpLeg
	{
		OFFSET	-0.124023	-0.008373	-0.065224
		CHANNELS 3 Zrotation Xrotation Yrotation
		JOINT RightLeg
		{
			OFFSET	 0.000000	 0.000000	 0.570047
			CHANNELS 3 Zrotation Xrotation Yrotation
			JOINT RightFoot
			{
				OFFSET	 0.000000	 0.000000	 0.544354
				CHANNELS 3 Zrotation Xrotation Yrotation
				JOINT RightToeBase
				{
					OFFSET	 0.000000	 0.000000	 0.207540
					CHANNELS 3 Zrotation Xrotation Yrotation
					End Site
					{
						OFFSET	 0.000000	 0.000000	 0.207540
					}
				}
			}
		}
	}
	JOINT Spine
	{
		OFFSET	 0.000184	-0.007763	 0.117403
		CHANNELS 3 Zrotation Xrotation Yrotation
		JOINT Spine1
		{
			OFFSET	 0.000000	 0.000000	 0.137269
			CHANNELS 3 Zrotation Xrotation Yrotation
			JOINT Spine2
			{
				OFFSET	 0.000000	 0.000000	 0.156879
				CHANNELS 3 Zrotation Xrotation Yrotation
				JOINT LeftShoulder
				{
					OFFSET	 0.080501	-0.002496	 0.160144
					CHANNELS 3 Zrotation Xrotation Yrotation
					JOINT LeftArm
					{
						OFFSET	 0.000000	 0.000000	 0.164363
						CHANNELS 3 Zrotation Xrotation Yrotation
						JOINT LeftForeArm
						{
							OFFSET	 0.000000	 0.000000	 0.364576
							CHANNELS 3 Zrotation Xrotation Yrotation
							JOINT LeftHand
							{
								OFFSET	 0.000000	 0.000000	 0.360812
								CHANNELS 3 Zrotation Xrotation Yrotation
								JOINT LeftHandIndex1
								{
									OFFSET	 0.000000	 0.000000	 0.086006
									CHANNELS 3 Zrotation Xrotation Yrotation
									JOINT LeftHandIndex2
									{
										OFFSET	 0.000000	 0.000000	 0.047236
										CHANNELS 3 Zrotation Xrotation Yrotation
										JOINT LeftHandIndex3
										{
											OFFSET	-0.004284	-0.000551	 0.038166
											CHANNELS 3 Zrotation Xrotation Yrotation
											End Site
											{
												OFFSET	-0.004284	-0.000551	 0.038166
											}
										}
									}
								}
							}
						}
					}
				}
				JOINT Neck
				{
					OFFSET	 0.000000	 0.000000	 0.176489
					CHANNELS 3 Zrotation Xrotation Yrotation
					JOINT Head
					{
						OFFSET	 0.000000	-0.001747	 0.077940
						CHANNELS 3 Zrotation Xrotation Yrotation
						End Site
						{
							OFFSET	 0.000000	-0.001747	 0.077940
						}
					}
				}
				JOINT RightShoulder
				{
					OFFSET	-0.080363	 0.000306	 0.159706
					CHANNELS 3 Zrotation Xrotation Yrotation
					JOINT RightArm
					{
						OFFSET	 0.000000	 0.000000	 0.164196
						CHANNELS 3 Zrotation Xrotation Yrotation
						JOINT RightForeArm
						{
							OFFSET	 0.000000	 0.000000	 0.365611
							CHANNELS 3 Zrotation Xrotation Yrotation
							JOINT RightHand
							{
								OFFSET	 0.000000	 0.000000	 0.360648
								CHANNELS 3 Zrotation Xrotation Yrotation
								JOINT RightHandIndex1
								{
									OFFSET	 0.000000	 0.000000	 0.069977
									CHANNELS 3 Zrotation Xrotation Yrotation
									JOINT RightHandIndex2
									{
										OFFSET	 0.000000	 0.000000	 0.052305
										CHANNELS 3 Zrotation Xrotation Yrotation
										JOINT RightHandIndex3
										{
											OFFSET	 0.009002	-0.000782	 0.042196
											CHANNELS 3 Zrotation Xrotation Yrotation
											End Site
											{
												OFFSET	 0.009002	-0.000782	 0.042196
											}
										}
									}
								}
							}
						}
					}
				}
			}
		}
	}
}
MOTION
Frames:    7
Frame Time: 0.03333334
-0.057984	-2.254748	 1.239368	 4.252141	-1.515020	-2.879355	 14.569380	-5.327452	-174.803000	 0.489162	-29.222700	 0.054384	 25.635730	 73.728480	-28.765440	-2.370933	 31.356540	-0.064083	-18.706790	-31.070100	-176.721800	 9.735668	-50.048610	 8.081426	 3.616674	 63.082300	 2.664545	 2.358093	 33.128070	 0.106204	 23.200450	 8.814943	 2.027101	-1.647609	 2.369441	-0.908327	 1.665053	-2.158917	 0.865048	-93.811580	 58.899800	 175.666500	 7.680861	 29.360020	-45.028460	 8.087364	-0.808074	-4.955707	 22.818440	-21.375960	 1.939440	-4.869360	 19.242260	-2.786470	-3.889051	 21.376410	 2.210401	-4.808246	 5.545631	 0.146960	-0.113334	-5.030455	 0.165052	-0.569347	 2.190111	 2.799258	 89.818810	 61.598890	-179.912700	-20.450390	 52.159250	 15.401580	-10.287060	-1.240806	 6.070576	-27.086860	-6.132034	-1.738706	 6.301636	 25.699750	-0.567649	 1.770155	 45.616230	-6.890035	 0.396882	 24.840900	 3.634367
-0.059840	-2.295306	 1.238147	 4.806524	-1.211458	-2.858775	 13.840180	-3.374873	-175.485300	 0.792851	-28.402200	 0.209356	 25.297530	 75.027090	-28.576520	-2.369942	 31.523790	-0.067861	-20.255400	-33.055090	-178.066700	 9.244166	-44.531460	 7.050804	 1.398690	 61.768100	 5.109902	 2.358669	 33.044560	 0.104257	 21.492300	 8.658785	 1.949175	-1.785854	 2.604757	-0.934626	 1.585086	-2.383064	 0.906221	-93.915160	 58.982450	 175.435400	 6.397491	 27.411640	-45.796810	 9.418304	-1.153226	-5.919443	 22.610940	-17.750850	-0.668207	-4.869108	 19.247410	-2.786520	-3.884905	 21.429540	 2.206196	-4.808268	 5.545427	 0.146971	-0.082339	-5.067441	 0.180867	-0.551824	 2.141556	 2.687916	 89.786210	 61.640240	-179.990200	-20.563340	 53.528280	 12.554050	-12.252700	-2.625383	 9.523062	-26.816190	-1.683591	-0.037544	 6.295038	 24.990390	-0.544801	 1.869415	 44.830370	-6.978772	 0.514782	 24.326570	 3.574103
-0.061857	-2.334479	 1.235407	 5.319432	-0.810081	-2.866655	 13.210700	-1.674754	-176.094600	 1.023525	-27.753820	 0.312390	 24.854520	 76.301270	-28.205970	-2.369046	 31.673920	-0.071260	-21.838290	-34.412590	-179.502300	 8.956717	-38.205440	 6.044071	-0.942967	 60.268980	 7.516252	 2.358948	 33.002760	 0.103290	 19.690720	 8.413479	 1.848561	-1.903452	 2.800046	-0.902151	 1.500718	-2.590012	 0.918073	-94.029970	 59.017510	 175.185900	 5.172658	 25.606960	-46.459360	 10.873650	-1.541530	-6.815982	 22.588450	-14.416650	-2.768996	-4.866710	 19.312090	-2.791387	-3.879076	 21.504200	 2.200258	-4.806497	 5.566268	 0.145754	-0.054885	-5.093354	 0.208496	-0.550572	 2.102149	 2.604874	 89.745260	 61.690580	 179.912000	-20.509890	 54.700880	 10.163210	-14.196880	-3.894571	 12.078610	-26.594800	 2.422059	 1.437212	 6.285077	 24.175120	-0.542878	 1.970475	 44.004420	-7.068710	 0.672301	 23.631920	 3.494930
-0.064118	-2.371893	 1.231777	 5.798449	-0.349903	-2.891350	 12.634480	-0.222365	-176.659500	 1.185909	-27.329770	 0.382547	 24.318760	 77.591530	-27.688470	-2.368212	 31.809950	-0.074355	-23.399200	-35.122800	 179.028500	 8.836942	-31.635430	 5.066961	-2.994789	 59.457160	 9.350950	 2.359038	 32.990010	 0.102992	 17.781370	 8.112016	 1.730811	-2.021718	 2.891698	-0.845957	 1.414046	-2.747374	 0.916010	-94.150660	 59.019730	 174.928100	 4.130478	 24.030130	-46.975310	 12.385800	-1.961813	-7.644528	 22.623620	-11.453350	-4.443778	-4.862863	 19.416150	-2.799469	-3.872179	 21.592230	 2.193256	-4.803544	 5.601098	 0.143711	-0.030298	-5.111292	 0.243706	-0.560230	 2.069745	 2.542335	 89.699320	 61.746200	 179.801900	-20.310910	 55.630370	 8.465506	-16.162810	-4.722363	 13.283360	-26.364750	 6.109895	 2.655836	 6.272763	 23.301460	-0.555166	 2.069930	 43.165050	-7.156797	 0.852631	 22.826130	 3.406233
-0.066413	-2.407025	 1.227713	 6.106177	 0.078295	-3.020931	 12.253510	 1.186406	-177.110800	 1.307804	-26.980320	 0.433342	 23.927850	 79.003680	-27.303670	-2.367081	 31.995040	-0.078562	-24.378560	-35.733770	 177.836400	 8.891455	-26.177340	 4.289507	-4.274944	 58.540920	 10.195140	 2.359912	 32.861120	 0.099995	 15.867960	 7.777374	 1.725774	-2.133659	 2.977200	-0.808852	 1.346535	-2.857498	 0.911121	-94.256110	 58.993800	 174.707000	 3.310666	 22.769350	-47.389250	 13.595600	-2.397874	-8.402118	 22.342550	-8.900474	-5.410904	-4.856052	 19.580220	-2.808239	-3.863050	 21.708500	 2.183976	-4.798290	 5.662996	 0.140085	-0.015881	-5.141218	 0.276971	-0.584281	 2.042215	 2.518749	 89.638090	 61.821130	 179.654600	-19.935530	 56.261760	 7.737069	-18.323660	-4.725589	 12.707670	-26.119100	 9.404682	 3.412542	 6.257539	 22.354850	-0.581763	 2.159977	 42.381470	-7.236164	 1.057359	 21.897860	 3.308110
-0.069062	-2.441921	 1.222064	 6.329231	 0.496219	-3.210840	 11.950160	 2.633666	-177.536000	 1.411086	-26.709090	 0.475739	 23.574910	 80.594930	-26.956580	-2.365731	 32.209190	-0.083455	-25.085530	-37.609700	 176.649000	 9.176260	-23.234640	 3.952487	-5.120861	 58.174970	 10.573750	 2.361189	 32.668780	 0.095552	 13.869110	 7.418689	 1.780856	-2.235916	 3.102277	-0.769286	 1.288316	-2.964043	 0.899614	-94.355470	 58.952630	 174.501500	 2.609592	 21.687590	-47.836690	 14.636510	-2.856679	-9.113476	 21.778990	-6.752212	-5.922319	-4.847515	 19.778690	-2.817522	-3.852563	 21.841630	 2.173320	-4.791726	 5.740219	 0.135552	-0.006546	-5.177968	 0.309763	-0.616265	 2.016874	 2.515154	 89.567990	 61.907590	 179.484800	-19.454120	 56.773920	 7.052736	-20.535560	-4.604021	 12.025360	-25.764090	 12.312940	 3.797017	 6.240135	 21.353750	-0.616309	 2.245685	 41.614050	-7.311350	 1.276355	 20.889110	 3.206240
-0.072115	-2.478102	 1.215235	 6.450194	 0.777643	-3.393061	 11.698640	 4.292499	-178.039300	 1.483102	-26.485750	 0.504177	 22.215680	 82.096760	-25.561240	-2.362765	 32.670040	-0.094035	-25.187290	-40.227070	 175.659300	 9.270317	-22.255580	 3.851306	-5.375393	 60.891450	 10.305810	 2.358209	 33.111820	 0.105819	 11.680720	 7.094909	 1.862505	-2.330576	 3.366538	-0.749203	 1.260485	-3.094369	 0.898527	-94.424260	 58.911150	 174.361600	 1.875638	 20.858710	-48.278890	 15.699210	-3.345987	-9.795759	 20.895180	-4.869531	-6.305156	-4.837193	 19.992140	-2.821447	-3.839098	 22.011750	 2.159647	-4.781922	 5.855428	 0.128773	 0.006997	-5.224777	 0.329443	-0.626366	 1.976123	 2.497293	 89.505950	 61.973610	 179.333700	-18.781390	 57.169440	 6.309224	-22.823480	-4.374246	 11.299530	-25.132420	 14.735020	 3.673724	 6.219437	 20.242530	-0.659801	 2.378267	 40.383610	-7.426939	 1.517212	 19.761110	 3.098006
